<svg width="297" height="370" viewBox="0 0 297 370" fill="none" xmlns="http://www.w3.org/2000/svg">
<rect x="3" y="3" width="253" height="340" fill="white"/>
<path d="M248.242 172.271L128.152 154.666L126.504 165.275L246.595 182.88L248.242 172.271Z" fill="#E0E0E0"/>
<path d="M179.964 216.504L119.922 207.702L118.274 218.311L178.317 227.113L179.964 216.504Z" fill="#2D4059"/>
<g opacity="0.5">
<path opacity="0.5" d="M259.297 0H0.301758V347.698H259.297V0Z" fill="url(#paint0_linear)"/>
</g>
<path d="M256 4H3V344H256V4Z" fill="white"/>
<g opacity="0.5">
<path opacity="0.5" d="M37.3048 80.3547C37.3056 73.8582 39.0372 67.4726 42.3313 61.8193C45.6254 56.166 50.3697 51.4376 56.1025 48.0942C61.8353 44.7509 68.3613 42.9066 75.0453 42.7408C81.7293 42.5749 88.3436 44.0932 94.2445 47.1479C100.145 50.2026 105.132 54.6896 108.719 60.1722C112.305 65.6548 114.37 71.9462 114.712 78.4342C115.054 84.9221 113.662 91.3856 110.67 97.1955C107.678 103.005 103.19 107.964 97.6408 111.588V111.753C96.3758 112.933 94.8826 113.857 93.2475 114.472L93.1952 114.307C91.3843 115.819 83.7483 118.239 74.9748 118.214H74.7852C69.2282 118.214 63.2005 117.261 57.8919 114.472C57.8919 114.472 57.8461 114.37 57.7742 114.186C56.4291 113.572 55.195 112.75 54.1197 111.753L54.0609 111.328C48.8926 107.872 44.6668 103.247 41.7477 97.851C38.8287 92.4551 37.3039 86.4505 37.3048 80.3547Z" fill="url(#paint1_linear)"/>
</g>
<path d="M76 117C96.9868 117 114 100.658 114 80.5C114 60.3416 96.9868 44 76 44C55.0132 44 38 60.3416 38 80.5C38 100.658 55.0132 117 76 117Z" fill="#F5F5F5"/>
<path d="M61.4813 95C61.4813 95 53.1729 95.6603 55.3698 110.531C56.5093 111.603 57.8543 112.442 59.3269 113L64 97.4924L61.4813 95Z" fill="#4D8AF0"/>
<path d="M89.7839 95C89.7839 95 99.0343 95.6603 96.5882 110.531C95.3196 111.603 93.8221 112.442 92.1826 113L87 97.4448L89.7839 95Z" fill="#4D8AF0"/>
<path d="M76 83C85.3888 83 93 75.8366 93 67C93 58.1635 85.3888 51 76 51C66.6112 51 59 58.1635 59 67C59 75.8366 66.6112 83 76 83Z" fill="#333333"/>
<path opacity="0.1" d="M90.3013 95H61.3135L58.6059 105.882C58.6059 105.882 57.014 110.922 58.9909 113.138C60.9677 115.355 79.4317 120.395 93.0024 113.5C94.1848 110.598 94.32 107.412 93.3874 104.43C91.8411 99.3539 93.0024 104.069 93.0024 104.069L90.3013 95Z" fill="black"/>
<path d="M90.3013 95H61.3135L58.6059 105.882C58.6059 105.882 57.014 110.922 58.9909 113.138C60.9677 115.355 79.4317 120.395 93.0024 113.5C94.1848 110.598 94.32 107.412 93.3874 104.43C91.8411 99.3539 93.0024 104.069 93.0024 104.069L90.3013 95Z" fill="#4D8AF0"/>
<path opacity="0.1" d="M70.0067 85H82V95.6318C82 96.7903 81.5214 97.9014 80.6696 98.7206C79.8178 99.5398 78.6625 100 77.4578 100H74.5422C73.3375 100 72.1822 99.5398 71.3304 98.7206C70.4785 97.9014 70 96.7903 70 95.6318V85H70.0067Z" fill="black"/>
<path d="M70.0067 85H82V94.923C82 96.0043 81.5214 97.0413 80.6696 97.8059C79.8178 98.5705 78.6625 99 77.4578 99H74.5422C73.3375 99 72.1822 98.5705 71.3304 97.8059C70.4785 97.0413 70 96.0043 70 94.923V85H70.0067Z" fill="#BE7C5E"/>
<path opacity="0.1" d="M70 86.1557C73.8715 87.2814 78.1285 87.2814 82 86.1557V85H70V86.1557Z" fill="black"/>
<path d="M76 87C85.3888 87 93 79.8366 93 71C93 62.1635 85.3888 55 76 55C66.6112 55 59 62.1635 59 71C59 79.8366 66.6112 87 76 87Z" fill="#BE7C5E"/>
<path d="M60 65H92C92 65 89.2664 52.217 77.1725 53.0379C65.0786 53.8588 60 65 60 65Z" fill="#333333"/>
<path d="M60.5 73C61.3284 73 62 71.6569 62 70C62 68.3431 61.3284 67 60.5 67C59.6716 67 59 68.3431 59 70C59 71.6569 59.6716 73 60.5 73Z" fill="#BE7C5E"/>
<path d="M92 73C93.1046 73 94 71.6569 94 70C94 68.3431 93.1046 67 92 67C90.8954 67 90 68.3431 90 70C90 71.6569 90.8954 73 92 73Z" fill="#BE7C5E"/>
<path opacity="0.1" d="M60 65H92C92 65 89.2664 52.217 77.1725 53.0379C65.0786 53.8588 60 65 60 65Z" fill="black"/>
<path d="M219 64H126V75H219V64Z" fill="#E0E0E0"/>
<path d="M211 91H134V102H211V91Z" fill="#2D4059"/>
<path d="M192 284H37V295H192V284Z" fill="#E0E0E0"/>
<path d="M98 311H37V322H98V311Z" fill="#2D4059"/>
<g opacity="0.5">
<path opacity="0.5" d="M241.829 370C272.299 370 297 346 297 316.394C297 286.789 272.299 262.788 241.829 262.788C211.359 262.788 186.658 286.789 186.658 316.394C186.658 346 211.359 370 241.829 370Z" fill="url(#paint2_linear)"/>
</g>
<path d="M242 367C270.719 367 294 344.39 294 316.5C294 288.61 270.719 266 242 266C213.281 266 190 288.61 190 316.5C190 344.39 213.281 367 242 367Z" fill="#69F0AE"/>
<path d="M219.125 309.397L238.622 326.998L266.245 287L276 295.001L238.622 343L211 312.602L219.125 309.397Z" fill="white"/>
<path d="M60.0065 149.757C59.9045 149.82 59.8025 149.874 59.7005 149.919C59.6042 149.959 59.5022 149.987 59.3945 150.004C59.6155 150.038 59.8195 150.117 60.0065 150.242L61.358 151.032L60.865 151.882L59.5135 151.092C59.4115 151.03 59.3152 150.964 59.2245 150.896C59.1395 150.828 59.0658 150.755 59.0035 150.675C59.0772 150.862 59.114 151.078 59.114 151.321V152.885H58.111V151.33C58.111 151.217 58.1167 151.106 58.128 150.998C58.145 150.891 58.1705 150.789 58.2045 150.692C58.1422 150.772 58.0685 150.843 57.9835 150.905C57.8985 150.967 57.8078 151.03 57.7115 151.092L56.3685 151.874L55.867 151.024L57.2185 150.242C57.4338 150.117 57.6378 150.038 57.8305 150.004C57.6322 149.97 57.4282 149.888 57.2185 149.757L55.867 148.967L56.36 148.117L57.7115 148.916C57.8135 148.978 57.907 149.043 57.992 149.111C58.077 149.174 58.1535 149.245 58.2215 149.324C58.1478 149.137 58.111 148.924 58.111 148.686V147.114H59.114V148.669C59.114 148.788 59.1055 148.902 59.0885 149.009C59.0772 149.117 59.0517 149.219 59.012 149.315C59.08 149.236 59.1565 149.165 59.2415 149.103C59.3265 149.041 59.4172 148.978 59.5135 148.916L60.8565 148.134L61.358 148.984L60.0065 149.757ZM83.9618 147.709L80.1453 160H78.0798L75.3938 151.602C75.3201 151.398 75.2521 151.149 75.1898 150.854C75.1558 150.996 75.1218 151.129 75.0878 151.253C75.0538 151.378 75.0169 151.494 74.9773 151.602L72.2658 160H70.1918L66.3838 147.709H68.2963C68.4946 147.709 68.6589 147.757 68.7893 147.853C68.9253 147.944 69.0159 148.069 69.0613 148.227L71.1523 155.58C71.1976 155.761 71.2401 155.96 71.2798 156.175C71.3251 156.385 71.3704 156.606 71.4158 156.838C71.4611 156.6 71.5093 156.376 71.5603 156.166C71.6169 155.957 71.6764 155.761 71.7388 155.58L74.1528 148.227C74.1981 148.097 74.2859 147.978 74.4163 147.87C74.5523 147.763 74.7166 147.709 74.9093 147.709H75.5808C75.7791 147.709 75.9406 147.757 76.0653 147.853C76.1899 147.95 76.2834 148.074 76.3458 148.227L78.7513 155.58C78.8703 155.931 78.9779 156.336 79.0743 156.795C79.1479 156.348 79.2301 155.943 79.3208 155.58L81.4118 148.227C81.4458 148.086 81.5308 147.964 81.6668 147.862C81.8084 147.76 81.9756 147.709 82.1683 147.709H83.9618ZM89.7287 154.636C89.7287 154.364 89.6891 154.109 89.6097 153.871C89.5361 153.628 89.4227 153.415 89.2697 153.234C89.1167 153.053 88.9212 152.911 88.6832 152.809C88.4509 152.701 88.1789 152.647 87.8672 152.647C87.2609 152.647 86.7821 152.82 86.4307 153.166C86.0851 153.512 85.8641 154.002 85.7677 154.636H89.7287ZM85.7252 155.903C85.7592 156.351 85.8386 156.739 85.9632 157.067C86.0879 157.39 86.2522 157.66 86.4562 157.875C86.6602 158.085 86.9011 158.243 87.1787 158.351C87.4621 158.453 87.7737 158.504 88.1137 158.504C88.4537 158.504 88.7456 158.464 88.9892 158.385C89.2386 158.306 89.4539 158.218 89.6352 158.121C89.8222 158.025 89.9837 157.937 90.1197 157.858C90.2614 157.779 90.3974 157.739 90.5277 157.739C90.7034 157.739 90.8337 157.804 90.9187 157.934L91.5222 158.699C91.2899 158.971 91.0292 159.201 90.7402 159.388C90.4512 159.569 90.1481 159.717 89.8307 159.83C89.5191 159.938 89.1989 160.014 88.8702 160.06C88.5472 160.105 88.2327 160.128 87.9267 160.128C87.3204 160.128 86.7566 160.028 86.2352 159.83C85.7139 159.626 85.2606 159.328 84.8752 158.938C84.4899 158.541 84.1867 158.053 83.9657 157.475C83.7447 156.892 83.6342 156.217 83.6342 155.452C83.6342 154.857 83.7306 154.299 83.9232 153.778C84.1159 153.251 84.3907 152.795 84.7477 152.409C85.1104 152.018 85.5496 151.71 86.0652 151.483C86.5866 151.256 87.1731 151.143 87.8247 151.143C88.3744 151.143 88.8816 151.231 89.3462 151.406C89.8109 151.582 90.2104 151.84 90.5447 152.18C90.8791 152.514 91.1397 152.928 91.3267 153.421C91.5194 153.908 91.6157 154.466 91.6157 155.095C91.6157 155.413 91.5817 155.628 91.5137 155.741C91.4457 155.849 91.3154 155.903 91.1227 155.903H85.7252ZM95.3673 151.279V160H93.2593V151.279H95.3673ZM95.6563 148.737C95.6563 148.919 95.6195 149.089 95.5458 149.247C95.4721 149.406 95.373 149.545 95.2483 149.664C95.1293 149.783 94.9876 149.879 94.8233 149.953C94.659 150.021 94.4833 150.055 94.2963 150.055C94.115 150.055 93.9421 150.021 93.7778 149.953C93.6191 149.879 93.4803 149.783 93.3613 149.664C93.2423 149.545 93.146 149.406 93.0723 149.247C93.0043 149.089 92.9703 148.919 92.9703 148.737C92.9703 148.55 93.0043 148.375 93.0723 148.21C93.146 148.046 93.2423 147.904 93.3613 147.785C93.4803 147.666 93.6191 147.573 93.7778 147.505C93.9421 147.431 94.115 147.394 94.2963 147.394C94.4833 147.394 94.659 147.431 94.8233 147.505C94.9876 147.573 95.1293 147.666 95.2483 147.785C95.373 147.904 95.4721 148.046 95.5458 148.21C95.6195 148.375 95.6563 148.55 95.6563 148.737ZM100.415 160.136C99.6554 160.136 99.0717 159.923 98.6637 159.498C98.2614 159.068 98.0602 158.476 98.0602 157.722V152.851H97.1677C97.0544 152.851 96.958 152.815 96.8787 152.741C96.7994 152.667 96.7597 152.557 96.7597 152.409V151.576L98.1622 151.347L98.6042 148.967C98.6325 148.854 98.6864 148.766 98.7657 148.703C98.845 148.641 98.947 148.61 99.0717 148.61H100.16V151.355H102.489V152.851H100.16V157.577C100.16 157.849 100.225 158.062 100.355 158.215C100.491 158.368 100.675 158.444 100.908 158.444C101.038 158.444 101.146 158.43 101.231 158.402C101.321 158.368 101.398 158.334 101.46 158.3C101.528 158.266 101.588 158.235 101.639 158.206C101.69 158.172 101.741 158.155 101.792 158.155C101.854 158.155 101.905 158.172 101.945 158.206C101.984 158.235 102.027 158.28 102.072 158.342L102.701 159.362C102.395 159.617 102.044 159.81 101.647 159.94C101.251 160.071 100.84 160.136 100.415 160.136ZM109.385 154.636C109.385 154.364 109.345 154.109 109.266 153.871C109.192 153.628 109.079 153.415 108.926 153.234C108.773 153.053 108.577 152.911 108.339 152.809C108.107 152.701 107.835 152.647 107.523 152.647C106.917 152.647 106.438 152.82 106.087 153.166C105.741 153.512 105.52 154.002 105.424 154.636H109.385ZM105.381 155.903C105.415 156.351 105.495 156.739 105.619 157.067C105.744 157.39 105.908 157.66 106.112 157.875C106.316 158.085 106.557 158.243 106.835 158.351C107.118 158.453 107.43 158.504 107.77 158.504C108.11 158.504 108.402 158.464 108.645 158.385C108.895 158.306 109.11 158.218 109.291 158.121C109.478 158.025 109.64 157.937 109.776 157.858C109.918 157.779 110.054 157.739 110.184 157.739C110.36 157.739 110.49 157.804 110.575 157.934L111.178 158.699C110.946 158.971 110.685 159.201 110.396 159.388C110.107 159.569 109.804 159.717 109.487 159.83C109.175 159.938 108.855 160.014 108.526 160.06C108.203 160.105 107.889 160.128 107.583 160.128C106.977 160.128 106.413 160.028 105.891 159.83C105.37 159.626 104.917 159.328 104.531 158.938C104.146 158.541 103.843 158.053 103.622 157.475C103.401 156.892 103.29 156.217 103.29 155.452C103.29 154.857 103.387 154.299 103.579 153.778C103.772 153.251 104.047 152.795 104.404 152.409C104.767 152.018 105.206 151.71 105.721 151.483C106.243 151.256 106.829 151.143 107.481 151.143C108.031 151.143 108.538 151.231 109.002 151.406C109.467 151.582 109.867 151.84 110.201 152.18C110.535 152.514 110.796 152.928 110.983 153.421C111.176 153.908 111.272 154.466 111.272 155.095C111.272 155.413 111.238 155.628 111.17 155.741C111.102 155.849 110.972 155.903 110.779 155.903H105.381ZM114.828 152.792C115.1 152.271 115.423 151.863 115.797 151.568C116.171 151.268 116.613 151.117 117.123 151.117C117.525 151.117 117.848 151.205 118.092 151.381L117.956 152.953C117.928 153.055 117.885 153.129 117.829 153.174C117.778 153.214 117.707 153.234 117.616 153.234C117.531 153.234 117.404 153.22 117.234 153.191C117.069 153.163 116.908 153.149 116.749 153.149C116.517 153.149 116.31 153.183 116.129 153.251C115.947 153.319 115.783 153.418 115.636 153.548C115.494 153.673 115.366 153.826 115.253 154.007C115.145 154.189 115.043 154.396 114.947 154.628V160H112.848V151.279H114.08C114.295 151.279 114.446 151.319 114.531 151.398C114.616 151.472 114.672 151.608 114.701 151.806L114.828 152.792ZM124.559 154.636C124.559 154.364 124.519 154.109 124.44 153.871C124.366 153.628 124.253 153.415 124.1 153.234C123.947 153.053 123.751 152.911 123.513 152.809C123.281 152.701 123.009 152.647 122.697 152.647C122.091 152.647 121.612 152.82 121.261 153.166C120.915 153.512 120.694 154.002 120.598 154.636H124.559ZM120.555 155.903C120.589 156.351 120.669 156.739 120.793 157.067C120.918 157.39 121.082 157.66 121.286 157.875C121.49 158.085 121.731 158.243 122.009 158.351C122.292 158.453 122.604 158.504 122.944 158.504C123.284 158.504 123.576 158.464 123.819 158.385C124.069 158.306 124.284 158.218 124.465 158.121C124.652 158.025 124.814 157.937 124.95 157.858C125.091 157.779 125.227 157.739 125.358 157.739C125.533 157.739 125.664 157.804 125.749 157.934L126.352 158.699C126.12 158.971 125.859 159.201 125.57 159.388C125.281 159.569 124.978 159.717 124.661 159.83C124.349 159.938 124.029 160.014 123.7 160.06C123.377 160.105 123.063 160.128 122.757 160.128C122.15 160.128 121.587 160.028 121.065 159.83C120.544 159.626 120.091 159.328 119.705 158.938C119.32 158.541 119.017 158.053 118.796 157.475C118.575 156.892 118.464 156.217 118.464 155.452C118.464 154.857 118.561 154.299 118.753 153.778C118.946 153.251 119.221 152.795 119.578 152.409C119.94 152.018 120.38 151.71 120.895 151.483C121.417 151.256 122.003 151.143 122.655 151.143C123.204 151.143 123.712 151.231 124.176 151.406C124.641 151.582 125.04 151.84 125.375 152.18C125.709 152.514 125.97 152.928 126.157 153.421C126.349 153.908 126.446 154.466 126.446 155.095C126.446 155.413 126.412 155.628 126.344 155.741C126.276 155.849 126.145 155.903 125.953 155.903H120.555ZM58.6635 180H56.3685V167.709H58.6635V180ZM62.9146 172.35C63.0902 172.174 63.2744 172.013 63.4671 171.865C63.6654 171.712 63.8722 171.585 64.0876 171.483C64.3086 171.375 64.5437 171.293 64.7931 171.236C65.0424 171.174 65.3144 171.143 65.6091 171.143C66.0851 171.143 66.5072 171.225 66.8756 171.389C67.2439 171.548 67.5499 171.775 67.7936 172.069C68.0429 172.358 68.2299 172.707 68.3546 173.115C68.4849 173.517 68.5501 173.962 68.5501 174.449V180H66.4506V174.449C66.4506 173.917 66.3287 173.506 66.0851 173.217C65.8414 172.922 65.4702 172.775 64.9716 172.775C64.6089 172.775 64.2689 172.857 63.9516 173.021C63.6342 173.186 63.3339 173.41 63.0506 173.693V180H60.9511V171.279H62.2346C62.5066 171.279 62.6851 171.406 62.7701 171.661L62.9146 172.35ZM71.0094 180V172.86L70.2529 172.741C70.0885 172.707 69.9554 172.65 69.8534 172.571C69.757 172.486 69.7089 172.367 69.7089 172.214V171.355H71.0094V170.709C71.0094 170.211 71.083 169.763 71.2304 169.366C71.3834 168.97 71.5987 168.633 71.8764 168.355C72.1597 168.077 72.5025 167.865 72.9049 167.717C73.3072 167.57 73.7605 167.496 74.2649 167.496C74.6672 167.496 75.0412 167.55 75.3869 167.658L75.3444 168.712C75.3387 168.791 75.316 168.856 75.2764 168.907C75.2367 168.953 75.1829 168.99 75.1149 169.018C75.0525 169.041 74.9789 169.058 74.8939 169.069C74.8089 169.075 74.7182 169.077 74.6219 169.077C74.3725 169.077 74.1487 169.106 73.9504 169.162C73.7577 169.213 73.5934 169.307 73.4574 169.443C73.3214 169.573 73.2165 169.749 73.1429 169.97C73.0749 170.185 73.0409 170.454 73.0409 170.777V171.355H75.3104V172.851H73.1089V180H71.0094ZM80.1167 171.143C80.7627 171.143 81.3492 171.248 81.8762 171.458C82.4089 171.667 82.8622 171.965 83.2362 172.35C83.6159 172.735 83.9077 173.206 84.1117 173.761C84.3157 174.316 84.4177 174.937 84.4177 175.622C84.4177 176.314 84.3157 176.937 84.1117 177.492C83.9077 178.048 83.6159 178.521 83.2362 178.912C82.8622 179.303 82.4089 179.603 81.8762 179.813C81.3492 180.023 80.7627 180.128 80.1167 180.128C79.465 180.128 78.8729 180.023 78.3402 179.813C77.8075 179.603 77.3514 179.303 76.9717 178.912C76.5977 178.521 76.3059 178.048 76.0962 177.492C75.8922 176.937 75.7902 176.314 75.7902 175.622C75.7902 174.937 75.8922 174.316 76.0962 173.761C76.3059 173.206 76.5977 172.735 76.9717 172.35C77.3514 171.965 77.8075 171.667 78.3402 171.458C78.8729 171.248 79.465 171.143 80.1167 171.143ZM80.1167 178.512C80.842 178.512 81.3775 178.269 81.7232 177.781C82.0745 177.294 82.2502 176.58 82.2502 175.639C82.2502 174.699 82.0745 173.982 81.7232 173.489C81.3775 172.996 80.842 172.749 80.1167 172.749C79.38 172.749 78.8332 172.999 78.4762 173.497C78.1249 173.99 77.9492 174.704 77.9492 175.639C77.9492 176.574 78.1249 177.288 78.4762 177.781C78.8332 178.269 79.38 178.512 80.1167 178.512ZM87.9999 172.792C88.2719 172.271 88.5949 171.863 88.9689 171.568C89.3429 171.268 89.7849 171.117 90.2949 171.117C90.6973 171.117 91.0203 171.205 91.2639 171.381L91.1279 172.953C91.0996 173.055 91.0571 173.129 91.0004 173.174C90.9494 173.214 90.8786 173.234 90.7879 173.234C90.7029 173.234 90.5754 173.22 90.4054 173.191C90.2411 173.163 90.0796 173.149 89.9209 173.149C89.6886 173.149 89.4818 173.183 89.3004 173.251C89.1191 173.319 88.9548 173.418 88.8074 173.548C88.6658 173.673 88.5383 173.826 88.4249 174.007C88.3173 174.189 88.2153 174.396 88.1189 174.628V180H86.0194V171.279H87.2519C87.4673 171.279 87.6174 171.319 87.7024 171.398C87.7874 171.472 87.8441 171.608 87.8724 171.806L87.9999 172.792ZM92.3612 180V171.279H93.6447C93.9167 171.279 94.0952 171.406 94.1802 171.661L94.3162 172.307C94.4692 172.137 94.6279 171.982 94.7922 171.84C94.9622 171.698 95.1407 171.576 95.3277 171.474C95.5204 171.372 95.7244 171.293 95.9397 171.236C96.1607 171.174 96.4016 171.143 96.6622 171.143C97.2119 171.143 97.6624 171.293 98.0137 171.593C98.3707 171.888 98.6371 172.282 98.8127 172.775C98.9487 172.486 99.1187 172.239 99.3227 172.035C99.5267 171.826 99.7506 171.656 99.9942 171.525C100.238 171.395 100.496 171.299 100.768 171.236C101.045 171.174 101.323 171.143 101.601 171.143C102.082 171.143 102.51 171.217 102.884 171.364C103.258 171.511 103.573 171.727 103.828 172.01C104.083 172.293 104.275 172.639 104.406 173.047C104.542 173.455 104.61 173.922 104.61 174.449V180H102.51V174.449C102.51 173.894 102.388 173.478 102.145 173.2C101.901 172.917 101.544 172.775 101.074 172.775C100.858 172.775 100.657 172.812 100.47 172.885C100.289 172.959 100.127 173.067 99.9857 173.208C99.8497 173.344 99.7421 173.517 99.6627 173.727C99.5834 173.937 99.5437 174.177 99.5437 174.449V180H97.4357V174.449C97.4357 173.866 97.3167 173.441 97.0787 173.174C96.8464 172.908 96.5036 172.775 96.0502 172.775C95.7442 172.775 95.4581 172.851 95.1917 173.004C94.9311 173.152 94.6874 173.356 94.4607 173.616V180H92.3612ZM111.212 176.277C110.606 176.305 110.096 176.359 109.682 176.438C109.269 176.512 108.937 176.608 108.688 176.727C108.439 176.846 108.26 176.985 108.152 177.144C108.045 177.303 107.991 177.475 107.991 177.662C107.991 178.031 108.099 178.294 108.314 178.453C108.535 178.612 108.821 178.691 109.172 178.691C109.603 178.691 109.974 178.614 110.286 178.461C110.603 178.303 110.912 178.065 111.212 177.747V176.277ZM106.401 172.494C107.404 171.576 108.611 171.117 110.022 171.117C110.532 171.117 110.989 171.202 111.391 171.372C111.793 171.537 112.133 171.769 112.411 172.069C112.689 172.364 112.898 172.718 113.04 173.132C113.187 173.546 113.261 173.999 113.261 174.492V180H112.309C112.111 180 111.958 179.972 111.85 179.915C111.742 179.853 111.657 179.731 111.595 179.549L111.408 178.92C111.187 179.119 110.972 179.294 110.762 179.447C110.552 179.595 110.334 179.719 110.107 179.821C109.881 179.923 109.637 180 109.376 180.051C109.121 180.108 108.838 180.136 108.526 180.136C108.158 180.136 107.818 180.088 107.506 179.991C107.195 179.889 106.926 179.739 106.699 179.541C106.472 179.343 106.297 179.096 106.172 178.801C106.047 178.507 105.985 178.164 105.985 177.773C105.985 177.552 106.022 177.334 106.095 177.118C106.169 176.897 106.288 176.688 106.452 176.489C106.622 176.291 106.841 176.104 107.107 175.928C107.373 175.753 107.699 175.6 108.084 175.469C108.475 175.339 108.929 175.234 109.444 175.155C109.96 175.07 110.549 175.019 111.212 175.002V174.492C111.212 173.908 111.088 173.478 110.838 173.2C110.589 172.917 110.229 172.775 109.759 172.775C109.419 172.775 109.136 172.815 108.909 172.894C108.688 172.973 108.492 173.064 108.322 173.166C108.152 173.262 107.997 173.35 107.855 173.429C107.719 173.509 107.566 173.548 107.396 173.548C107.249 173.548 107.124 173.512 107.022 173.438C106.92 173.359 106.838 173.268 106.775 173.166L106.401 172.494ZM123.919 180H121.82V172.851H117.774V177.577C117.774 177.849 117.839 178.062 117.969 178.215C118.105 178.368 118.29 178.444 118.522 178.444C118.652 178.444 118.76 178.43 118.845 178.402C118.936 178.368 119.012 178.334 119.074 178.3C119.142 178.266 119.202 178.235 119.253 178.206C119.304 178.172 119.355 178.155 119.406 178.155C119.468 178.155 119.519 178.172 119.559 178.206C119.599 178.235 119.641 178.28 119.686 178.342L120.315 179.362C120.009 179.617 119.658 179.81 119.261 179.94C118.865 180.071 118.454 180.136 118.029 180.136C117.27 180.136 116.686 179.923 116.278 179.498C115.876 179.068 115.674 178.476 115.674 177.722V172.851H114.782C114.669 172.851 114.572 172.815 114.493 172.741C114.414 172.667 114.374 172.557 114.374 172.409V171.576L115.776 171.338L116.218 168.967C116.247 168.854 116.301 168.766 116.38 168.703C116.459 168.641 116.561 168.61 116.686 168.61H117.774V171.355H123.919V180ZM124.285 168.703C124.285 168.885 124.248 169.058 124.174 169.222C124.101 169.381 124.002 169.519 123.877 169.638C123.758 169.757 123.613 169.854 123.443 169.927C123.279 169.995 123.103 170.029 122.916 170.029C122.735 170.029 122.565 169.995 122.406 169.927C122.248 169.854 122.109 169.757 121.99 169.638C121.871 169.519 121.775 169.381 121.701 169.222C121.633 169.058 121.599 168.885 121.599 168.703C121.599 168.516 121.633 168.344 121.701 168.185C121.775 168.021 121.871 167.879 121.99 167.76C122.109 167.635 122.248 167.539 122.406 167.471C122.565 167.397 122.735 167.36 122.916 167.36C123.103 167.36 123.279 167.397 123.443 167.471C123.613 167.539 123.758 167.635 123.877 167.76C124.002 167.879 124.101 168.021 124.174 168.185C124.248 168.344 124.285 168.516 124.285 168.703ZM129.921 171.143C130.567 171.143 131.154 171.248 131.681 171.458C132.214 171.667 132.667 171.965 133.041 172.35C133.421 172.735 133.712 173.206 133.916 173.761C134.12 174.316 134.222 174.937 134.222 175.622C134.222 176.314 134.12 176.937 133.916 177.492C133.712 178.048 133.421 178.521 133.041 178.912C132.667 179.303 132.214 179.603 131.681 179.813C131.154 180.023 130.567 180.128 129.921 180.128C129.27 180.128 128.678 180.023 128.145 179.813C127.612 179.603 127.156 179.303 126.776 178.912C126.402 178.521 126.111 178.048 125.901 177.492C125.697 176.937 125.595 176.314 125.595 175.622C125.595 174.937 125.697 174.316 125.901 173.761C126.111 173.206 126.402 172.735 126.776 172.35C127.156 171.965 127.612 171.667 128.145 171.458C128.678 171.248 129.27 171.143 129.921 171.143ZM129.921 178.512C130.647 178.512 131.182 178.269 131.528 177.781C131.879 177.294 132.055 176.58 132.055 175.639C132.055 174.699 131.879 173.982 131.528 173.489C131.182 172.996 130.647 172.749 129.921 172.749C129.185 172.749 128.638 172.999 128.281 173.497C127.93 173.99 127.754 174.704 127.754 175.639C127.754 176.574 127.93 177.288 128.281 177.781C128.638 178.269 129.185 178.512 129.921 178.512ZM137.788 172.35C137.963 172.174 138.147 172.013 138.34 171.865C138.538 171.712 138.745 171.585 138.961 171.483C139.182 171.375 139.417 171.293 139.666 171.236C139.915 171.174 140.187 171.143 140.482 171.143C140.958 171.143 141.38 171.225 141.749 171.389C142.117 171.548 142.423 171.775 142.667 172.069C142.916 172.358 143.103 172.707 143.228 173.115C143.358 173.517 143.423 173.962 143.423 174.449V180H141.324V174.449C141.324 173.917 141.202 173.506 140.958 173.217C140.714 172.922 140.343 172.775 139.845 172.775C139.482 172.775 139.142 172.857 138.825 173.021C138.507 173.186 138.207 173.41 137.924 173.693V180H135.824V171.279H137.108C137.38 171.279 137.558 171.406 137.643 171.661L137.788 172.35ZM151.038 174.636C151.038 174.364 150.999 174.109 150.919 173.871C150.846 173.628 150.732 173.415 150.579 173.234C150.426 173.053 150.231 172.911 149.993 172.809C149.76 172.701 149.488 172.647 149.177 172.647C148.57 172.647 148.092 172.82 147.74 173.166C147.395 173.512 147.174 174.002 147.077 174.636H151.038ZM147.035 175.903C147.069 176.351 147.148 176.739 147.273 177.067C147.397 177.39 147.562 177.66 147.766 177.875C147.97 178.085 148.211 178.243 148.488 178.351C148.772 178.453 149.083 178.504 149.423 178.504C149.763 178.504 150.055 178.464 150.299 178.385C150.548 178.306 150.763 178.218 150.945 178.121C151.132 178.025 151.293 177.937 151.429 177.858C151.571 177.779 151.707 177.739 151.837 177.739C152.013 177.739 152.143 177.804 152.228 177.934L152.832 178.699C152.599 178.971 152.339 179.201 152.05 179.388C151.761 179.569 151.458 179.717 151.14 179.83C150.829 179.938 150.508 180.014 150.18 180.06C149.857 180.105 149.542 180.128 149.236 180.128C148.63 180.128 148.066 180.028 147.545 179.83C147.023 179.626 146.57 179.328 146.185 178.938C145.799 178.541 145.496 178.053 145.275 177.475C145.054 176.892 144.944 176.217 144.944 175.452C144.944 174.857 145.04 174.299 145.233 173.778C145.425 173.251 145.7 172.795 146.057 172.409C146.42 172.018 146.859 171.71 147.375 171.483C147.896 171.256 148.483 171.143 149.134 171.143C149.684 171.143 150.191 171.231 150.656 171.406C151.12 171.582 151.52 171.84 151.854 172.18C152.189 172.514 152.449 172.928 152.636 173.421C152.829 173.908 152.925 174.466 152.925 175.095C152.925 175.413 152.891 175.628 152.823 175.741C152.755 175.849 152.625 175.903 152.432 175.903H147.035ZM156.464 172.35C156.64 172.174 156.824 172.013 157.017 171.865C157.215 171.712 157.422 171.585 157.637 171.483C157.858 171.375 158.094 171.293 158.343 171.236C158.592 171.174 158.864 171.143 159.159 171.143C159.635 171.143 160.057 171.225 160.425 171.389C160.794 171.548 161.1 171.775 161.343 172.069C161.593 172.358 161.78 172.707 161.904 173.115C162.035 173.517 162.1 173.962 162.1 174.449V180H160V174.449C160 173.917 159.879 173.506 159.635 173.217C159.391 172.922 159.02 172.775 158.521 172.775C158.159 172.775 157.819 172.857 157.501 173.021C157.184 173.186 156.884 173.41 156.6 173.693V180H154.501V171.279H155.784C156.056 171.279 156.235 171.406 156.32 171.661L156.464 172.35ZM174.495 172.146C174.495 172.293 174.469 172.438 174.418 172.579C174.367 172.721 174.299 172.837 174.214 172.928L170.075 178.385H174.367V180H167.635V179.124C167.635 179.028 167.658 178.915 167.703 178.784C167.749 178.648 167.817 178.521 167.907 178.402L172.089 172.885H167.882V171.279H174.495V172.146ZM183.564 171.279V180H182.28C182.003 180 181.827 179.872 181.753 179.617L181.609 178.92C181.252 179.283 180.858 179.578 180.427 179.804C179.997 180.025 179.489 180.136 178.906 180.136C178.43 180.136 178.008 180.057 177.639 179.898C177.277 179.734 176.971 179.504 176.721 179.209C176.472 178.915 176.282 178.566 176.152 178.164C176.027 177.756 175.965 177.308 175.965 176.821V171.279H178.064V176.821C178.064 177.354 178.186 177.767 178.43 178.062C178.679 178.351 179.05 178.495 179.543 178.495C179.906 178.495 180.246 178.416 180.563 178.257C180.881 178.093 181.181 177.869 181.464 177.586V171.279H183.564ZM56.037 200V191.279H57.3205C57.5925 191.279 57.771 191.406 57.856 191.661L57.992 192.307C58.145 192.137 58.3037 191.982 58.468 191.84C58.638 191.698 58.8165 191.576 59.0035 191.474C59.1962 191.372 59.4002 191.293 59.6155 191.236C59.8365 191.174 60.0773 191.143 60.338 191.143C60.8877 191.143 61.3382 191.293 61.6895 191.593C62.0465 191.888 62.3128 192.282 62.4885 192.775C62.6245 192.486 62.7945 192.239 62.9985 192.035C63.2025 191.826 63.4263 191.656 63.67 191.525C63.9137 191.395 64.1715 191.299 64.4435 191.236C64.7212 191.174 64.9988 191.143 65.2765 191.143C65.7582 191.143 66.186 191.217 66.56 191.364C66.934 191.511 67.2485 191.727 67.5035 192.01C67.7585 192.293 67.9512 192.639 68.0815 193.047C68.2175 193.455 68.2855 193.922 68.2855 194.449V200H66.186V194.449C66.186 193.894 66.0642 193.478 65.8205 193.2C65.5768 192.917 65.2198 192.775 64.7495 192.775C64.5342 192.775 64.333 192.812 64.146 192.885C63.9647 192.959 63.8032 193.067 63.6615 193.208C63.5255 193.344 63.4178 193.517 63.3385 193.727C63.2592 193.937 63.2195 194.177 63.2195 194.449V200H61.1115V194.449C61.1115 193.866 60.9925 193.441 60.7545 193.174C60.5222 192.908 60.1793 192.775 59.726 192.775C59.42 192.775 59.1338 192.851 58.8675 193.004C58.6068 193.152 58.3632 193.356 58.1365 193.616V200H56.037ZM75.8996 194.636C75.8996 194.364 75.86 194.109 75.7806 193.871C75.707 193.628 75.5936 193.415 75.4406 193.234C75.2876 193.053 75.0921 192.911 74.8541 192.809C74.6218 192.701 74.3498 192.647 74.0381 192.647C73.4318 192.647 72.953 192.82 72.6016 193.166C72.256 193.512 72.035 194.002 71.9386 194.636H75.8996ZM71.8961 195.903C71.9301 196.351 72.0095 196.739 72.1341 197.067C72.2588 197.39 72.4231 197.66 72.6271 197.875C72.8311 198.085 73.072 198.243 73.3496 198.351C73.633 198.453 73.9446 198.504 74.2846 198.504C74.6246 198.504 74.9165 198.464 75.1601 198.385C75.4095 198.306 75.6248 198.218 75.8061 198.121C75.9931 198.025 76.1546 197.937 76.2906 197.858C76.4323 197.779 76.5683 197.739 76.6986 197.739C76.8743 197.739 77.0046 197.804 77.0896 197.934L77.6931 198.699C77.4608 198.971 77.2001 199.201 76.9111 199.388C76.6221 199.569 76.319 199.717 76.0016 199.83C75.69 199.938 75.3698 200.014 75.0411 200.06C74.7181 200.105 74.4036 200.128 74.0976 200.128C73.4913 200.128 72.9275 200.028 72.4061 199.83C71.8848 199.626 71.4315 199.328 71.0461 198.938C70.6608 198.541 70.3576 198.053 70.1366 197.475C69.9156 196.892 69.8051 196.217 69.8051 195.452C69.8051 194.857 69.9015 194.299 70.0941 193.778C70.2868 193.251 70.5616 192.795 70.9186 192.409C71.2813 192.018 71.7205 191.71 72.2361 191.483C72.7575 191.256 73.344 191.143 73.9956 191.143C74.5453 191.143 75.0525 191.231 75.5171 191.406C75.9818 191.582 76.3813 191.84 76.7156 192.18C77.05 192.514 77.3106 192.928 77.4976 193.421C77.6903 193.908 77.7866 194.466 77.7866 195.095C77.7866 195.413 77.7526 195.628 77.6846 195.741C77.6166 195.849 77.4863 195.903 77.2936 195.903H71.8961ZM81.5382 191.279V200H79.4302V191.279H81.5382ZM81.8272 188.737C81.8272 188.919 81.7904 189.089 81.7167 189.247C81.643 189.406 81.5439 189.545 81.4192 189.664C81.3002 189.783 81.1585 189.879 80.9942 189.953C80.8299 190.021 80.6542 190.055 80.4672 190.055C80.2859 190.055 80.113 190.021 79.9487 189.953C79.79 189.879 79.6512 189.783 79.5322 189.664C79.4132 189.545 79.3169 189.406 79.2432 189.247C79.1752 189.089 79.1412 188.919 79.1412 188.737C79.1412 188.55 79.1752 188.375 79.2432 188.21C79.3169 188.046 79.4132 187.904 79.5322 187.785C79.6512 187.666 79.79 187.573 79.9487 187.505C80.113 187.431 80.2859 187.394 80.4672 187.394C80.6542 187.394 80.8299 187.431 80.9942 187.505C81.1585 187.573 81.3002 187.666 81.4192 187.785C81.5439 187.904 81.643 188.046 81.7167 188.21C81.7904 188.375 81.8272 188.55 81.8272 188.737ZM85.6421 192.35C85.8178 192.174 86.0019 192.013 86.1946 191.865C86.3929 191.712 86.5998 191.585 86.8151 191.483C87.0361 191.375 87.2713 191.293 87.5206 191.236C87.7699 191.174 88.0419 191.143 88.3366 191.143C88.8126 191.143 89.2348 191.225 89.6031 191.389C89.9714 191.548 90.2774 191.775 90.5211 192.069C90.7704 192.358 90.9574 192.707 91.0821 193.115C91.2124 193.517 91.2776 193.962 91.2776 194.449V200H89.1781V194.449C89.1781 193.917 89.0563 193.506 88.8126 193.217C88.5689 192.922 88.1978 192.775 87.6991 192.775C87.3364 192.775 86.9964 192.857 86.6791 193.021C86.3618 193.186 86.0614 193.41 85.7781 193.693V200H83.6786V191.279H84.9621C85.2341 191.279 85.4126 191.406 85.4976 191.661L85.6421 192.35ZM98.8928 194.636C98.8928 194.364 98.8531 194.109 98.7738 193.871C98.7001 193.628 98.5868 193.415 98.4338 193.234C98.2808 193.053 98.0853 192.911 97.8473 192.809C97.615 192.701 97.343 192.647 97.0313 192.647C96.425 192.647 95.9461 192.82 95.5948 193.166C95.2491 193.512 95.0281 194.002 94.9318 194.636H98.8928ZM94.8893 195.903C94.9233 196.351 95.0026 196.739 95.1273 197.067C95.252 197.39 95.4163 197.66 95.6203 197.875C95.8243 198.085 96.0651 198.243 96.3428 198.351C96.6261 198.453 96.9378 198.504 97.2778 198.504C97.6178 198.504 97.9096 198.464 98.1533 198.385C98.4026 198.306 98.618 198.218 98.7993 198.121C98.9863 198.025 99.1478 197.937 99.2838 197.858C99.4255 197.779 99.5615 197.739 99.6918 197.739C99.8675 197.739 99.9978 197.804 100.083 197.934L100.686 198.699C100.454 198.971 100.193 199.201 99.9043 199.388C99.6153 199.569 99.3121 199.717 98.9948 199.83C98.6831 199.938 98.363 200.014 98.0343 200.06C97.7113 200.105 97.3968 200.128 97.0908 200.128C96.4845 200.128 95.9206 200.028 95.3993 199.83C94.878 199.626 94.4246 199.328 94.0393 198.938C93.654 198.541 93.3508 198.053 93.1298 197.475C92.9088 196.892 92.7983 196.217 92.7983 195.452C92.7983 194.857 92.8946 194.299 93.0873 193.778C93.28 193.251 93.5548 192.795 93.9118 192.409C94.2745 192.018 94.7136 191.71 95.2293 191.483C95.7506 191.256 96.3371 191.143 96.9888 191.143C97.5385 191.143 98.0456 191.231 98.5103 191.406C98.975 191.582 99.3745 191.84 99.7088 192.18C100.043 192.514 100.304 192.928 100.491 193.421C100.683 193.908 100.78 194.466 100.78 195.095C100.78 195.413 100.746 195.628 100.678 195.741C100.61 195.849 100.479 195.903 100.287 195.903H94.8893ZM104.319 192.35C104.495 192.174 104.679 192.013 104.871 191.865C105.07 191.712 105.277 191.585 105.492 191.483C105.713 191.375 105.948 191.293 106.197 191.236C106.447 191.174 106.719 191.143 107.013 191.143C107.489 191.143 107.912 191.225 108.28 191.389C108.648 191.548 108.954 191.775 109.198 192.069C109.447 192.358 109.634 192.707 109.759 193.115C109.889 193.517 109.954 193.962 109.954 194.449V200H107.855V194.449C107.855 193.917 107.733 193.506 107.489 193.217C107.246 192.922 106.875 192.775 106.376 192.775C106.013 192.775 105.673 192.857 105.356 193.021C105.039 193.186 104.738 193.41 104.455 193.693V200H102.355V191.279H103.639C103.911 191.279 104.089 191.406 104.174 191.661L104.319 192.35ZM60.3635 213.888C60.7828 213.888 61.1483 213.837 61.46 213.735C61.7717 213.628 62.0295 213.478 62.2335 213.285C62.4432 213.087 62.599 212.849 62.701 212.571C62.803 212.288 62.854 211.973 62.854 211.627C62.854 211.299 62.803 211.001 62.701 210.735C62.599 210.469 62.446 210.242 62.242 210.055C62.038 209.868 61.7802 209.726 61.4685 209.63C61.1568 209.528 60.7885 209.477 60.3635 209.477H58.655V213.888H60.3635ZM60.3635 207.709C61.1852 207.709 61.8963 207.805 62.497 207.998C63.0977 208.191 63.5935 208.46 63.9845 208.805C64.3755 209.151 64.6645 209.565 64.8515 210.046C65.0442 210.528 65.1405 211.055 65.1405 211.627C65.1405 212.222 65.0413 212.769 64.843 213.268C64.6447 213.761 64.3472 214.186 63.9505 214.543C63.5538 214.9 63.0552 215.178 62.4545 215.376C61.8595 215.574 61.1625 215.673 60.3635 215.673H58.655V220H56.3685V207.709H60.3635ZM68.4101 212.792C68.6821 212.271 69.0051 211.863 69.3791 211.568C69.7531 211.268 70.1951 211.117 70.7051 211.117C71.1074 211.117 71.4304 211.205 71.6741 211.381L71.5381 212.953C71.5097 213.055 71.4672 213.129 71.4106 213.174C71.3596 213.214 71.2887 213.234 71.1981 213.234C71.1131 213.234 70.9856 213.22 70.8156 213.191C70.6512 213.163 70.4897 213.149 70.3311 213.149C70.0987 213.149 69.8919 213.183 69.7106 213.251C69.5292 213.319 69.3649 213.418 69.2176 213.548C69.0759 213.673 68.9484 213.826 68.8351 214.007C68.7274 214.189 68.6254 214.396 68.5291 214.628V220H66.4296V211.279H67.6621C67.8774 211.279 68.0276 211.319 68.1126 211.398C68.1976 211.472 68.2542 211.608 68.2826 211.806L68.4101 212.792ZM76.3814 211.143C77.0274 211.143 77.6139 211.248 78.1409 211.458C78.6735 211.667 79.1269 211.965 79.5009 212.35C79.8805 212.735 80.1724 213.206 80.3764 213.761C80.5804 214.316 80.6824 214.937 80.6824 215.622C80.6824 216.314 80.5804 216.937 80.3764 217.492C80.1724 218.048 79.8805 218.521 79.5009 218.912C79.1269 219.303 78.6735 219.603 78.1409 219.813C77.6139 220.023 77.0274 220.128 76.3814 220.128C75.7297 220.128 75.1375 220.023 74.6049 219.813C74.0722 219.603 73.616 219.303 73.2364 218.912C72.8624 218.521 72.5705 218.048 72.3609 217.492C72.1569 216.937 72.0549 216.314 72.0549 215.622C72.0549 214.937 72.1569 214.316 72.3609 213.761C72.5705 213.206 72.8624 212.735 73.2364 212.35C73.616 211.965 74.0722 211.667 74.6049 211.458C75.1375 211.248 75.7297 211.143 76.3814 211.143ZM76.3814 218.512C77.1067 218.512 77.6422 218.269 77.9879 217.781C78.3392 217.294 78.5149 216.58 78.5149 215.639C78.5149 214.699 78.3392 213.982 77.9879 213.489C77.6422 212.996 77.1067 212.749 76.3814 212.749C75.6447 212.749 75.0979 212.999 74.7409 213.497C74.3895 213.99 74.2139 214.704 74.2139 215.639C74.2139 216.574 74.3895 217.288 74.7409 217.781C75.0979 218.269 75.6447 218.512 76.3814 218.512ZM84.4601 211.279V220.298C84.4601 220.677 84.4091 221.034 84.3071 221.369C84.2107 221.703 84.0521 221.995 83.8311 222.244C83.6157 222.499 83.3296 222.697 82.9726 222.839C82.6212 222.986 82.1906 223.06 81.6806 223.06C81.4822 223.06 81.2981 223.046 81.1281 223.018C80.9581 222.995 80.7824 222.955 80.6011 222.899L80.6776 221.768C80.6946 221.655 80.7399 221.581 80.8136 221.547C80.8872 221.519 81.0289 221.505 81.2386 221.505C81.4482 221.505 81.6239 221.482 81.7656 221.437C81.9129 221.397 82.0291 221.329 82.1141 221.233C82.1991 221.142 82.2586 221.02 82.2926 220.867C82.3322 220.714 82.3521 220.524 82.3521 220.298V211.279H84.4601ZM84.7491 208.737C84.7491 208.919 84.7122 209.089 84.6386 209.247C84.5649 209.406 84.4657 209.545 84.3411 209.664C84.2221 209.783 84.0776 209.879 83.9076 209.953C83.7432 210.021 83.5676 210.055 83.3806 210.055C83.1992 210.055 83.0292 210.021 82.8706 209.953C82.7119 209.879 82.5731 209.783 82.4541 209.664C82.3351 209.545 82.2387 209.406 82.1651 209.247C82.0971 209.089 82.0631 208.919 82.0631 208.737C82.0631 208.55 82.0971 208.375 82.1651 208.21C82.2387 208.046 82.3351 207.904 82.4541 207.785C82.5731 207.666 82.7119 207.573 82.8706 207.505C83.0292 207.431 83.1992 207.394 83.3806 207.394C83.5676 207.394 83.7432 207.431 83.9076 207.505C84.0776 207.573 84.2221 207.666 84.3411 207.785C84.4657 207.904 84.5649 208.046 84.6386 208.21C84.7122 208.375 84.7491 208.55 84.7491 208.737ZM92.219 214.636C92.219 214.364 92.1793 214.109 92.1 213.871C92.0263 213.628 91.913 213.415 91.76 213.234C91.607 213.053 91.4115 212.911 91.1735 212.809C90.9411 212.701 90.6691 212.647 90.3575 212.647C89.7511 212.647 89.2723 212.82 88.921 213.166C88.5753 213.512 88.3543 214.002 88.258 214.636H92.219ZM88.2155 215.903C88.2495 216.351 88.3288 216.739 88.4535 217.067C88.5781 217.39 88.7425 217.66 88.9465 217.875C89.1505 218.085 89.3913 218.243 89.669 218.351C89.9523 218.453 90.264 218.504 90.604 218.504C90.944 218.504 91.2358 218.464 91.4795 218.385C91.7288 218.306 91.9441 218.218 92.1255 218.121C92.3125 218.025 92.474 217.937 92.61 217.858C92.7516 217.779 92.8876 217.739 93.018 217.739C93.1936 217.739 93.324 217.804 93.409 217.934L94.0125 218.699C93.7801 218.971 93.5195 219.201 93.2305 219.388C92.9415 219.569 92.6383 219.717 92.321 219.83C92.0093 219.938 91.6891 220.014 91.3605 220.06C91.0375 220.105 90.723 220.128 90.417 220.128C89.8106 220.128 89.2468 220.028 88.7255 219.83C88.2041 219.626 87.7508 219.328 87.3655 218.938C86.9801 218.541 86.677 218.053 86.456 217.475C86.235 216.892 86.1245 216.217 86.1245 215.452C86.1245 214.857 86.2208 214.299 86.4135 213.778C86.6061 213.251 86.881 212.795 87.238 212.409C87.6006 212.018 88.0398 211.71 88.5555 211.483C89.0768 211.256 89.6633 211.143 90.315 211.143C90.8646 211.143 91.3718 211.231 91.8365 211.406C92.3011 211.582 92.7006 211.84 93.035 212.18C93.3693 212.514 93.63 212.928 93.817 213.421C94.0096 213.908 94.106 214.466 94.106 215.095C94.106 215.413 94.072 215.628 94.004 215.741C93.936 215.849 93.8056 215.903 93.613 215.903H88.2155ZM97.781 207.369V214.602H98.172C98.3137 214.602 98.4242 214.585 98.5035 214.551C98.5885 214.512 98.6735 214.435 98.7585 214.322L100.926 211.644C101.017 211.525 101.116 211.435 101.224 211.372C101.337 211.31 101.481 211.279 101.657 211.279H103.578L100.867 214.517C100.674 214.772 100.464 214.968 100.238 215.104C100.357 215.189 100.461 215.288 100.552 215.401C100.648 215.515 100.739 215.637 100.824 215.767L103.731 220H101.836C101.671 220 101.53 219.974 101.411 219.923C101.292 219.867 101.192 219.768 101.113 219.626L98.886 216.319C98.8067 216.189 98.7245 216.104 98.6395 216.064C98.5545 216.025 98.427 216.005 98.257 216.005H97.781V220H95.6815V207.369H97.781ZM107.67 220.136C106.91 220.136 106.327 219.923 105.919 219.498C105.516 219.068 105.315 218.476 105.315 217.722V212.851H104.423C104.309 212.851 104.213 212.815 104.134 212.741C104.054 212.667 104.015 212.557 104.015 212.409V211.576L105.417 211.347L105.859 208.967C105.887 208.854 105.941 208.766 106.021 208.703C106.1 208.641 106.202 208.61 106.327 208.61H107.415V211.355H109.744V212.851H107.415V217.577C107.415 217.849 107.48 218.062 107.61 218.215C107.746 218.368 107.93 218.444 108.163 218.444C108.293 218.444 108.401 218.43 108.486 218.402C108.576 218.368 108.653 218.334 108.715 218.3C108.783 218.266 108.843 218.235 108.894 218.206C108.945 218.172 108.996 218.155 109.047 218.155C109.109 218.155 109.16 218.172 109.2 218.206C109.239 218.235 109.282 218.28 109.327 218.342L109.956 219.362C109.65 219.617 109.299 219.81 108.902 219.94C108.505 220.071 108.095 220.136 107.67 220.136ZM116.64 214.636C116.64 214.364 116.6 214.109 116.521 213.871C116.447 213.628 116.334 213.415 116.181 213.234C116.028 213.053 115.832 212.911 115.594 212.809C115.362 212.701 115.09 212.647 114.778 212.647C114.172 212.647 113.693 212.82 113.342 213.166C112.996 213.512 112.775 214.002 112.679 214.636H116.64ZM112.636 215.903C112.67 216.351 112.75 216.739 112.874 217.067C112.999 217.39 113.163 217.66 113.367 217.875C113.571 218.085 113.812 218.243 114.09 218.351C114.373 218.453 114.685 218.504 115.025 218.504C115.365 218.504 115.657 218.464 115.9 218.385C116.15 218.306 116.365 218.218 116.546 218.121C116.733 218.025 116.895 217.937 117.031 217.858C117.173 217.779 117.309 217.739 117.439 217.739C117.615 217.739 117.745 217.804 117.83 217.934L118.433 218.699C118.201 218.971 117.94 219.201 117.651 219.388C117.362 219.569 117.059 219.717 116.742 219.83C116.43 219.938 116.11 220.014 115.781 220.06C115.458 220.105 115.144 220.128 114.838 220.128C114.232 220.128 113.668 220.028 113.146 219.83C112.625 219.626 112.172 219.328 111.786 218.938C111.401 218.541 111.098 218.053 110.877 217.475C110.656 216.892 110.545 216.217 110.545 215.452C110.545 214.857 110.642 214.299 110.834 213.778C111.027 213.251 111.302 212.795 111.659 212.409C112.022 212.018 112.461 211.71 112.976 211.483C113.498 211.256 114.084 211.143 114.736 211.143C115.286 211.143 115.793 211.231 116.257 211.406C116.722 211.582 117.122 211.84 117.456 212.18C117.79 212.514 118.051 212.928 118.238 213.421C118.431 213.908 118.527 214.466 118.527 215.095C118.527 215.413 118.493 215.628 118.425 215.741C118.357 215.849 118.227 215.903 118.034 215.903H112.636ZM122.066 212.35C122.242 212.174 122.426 212.013 122.618 211.865C122.817 211.712 123.024 211.585 123.239 211.483C123.46 211.375 123.695 211.293 123.944 211.236C124.194 211.174 124.466 211.143 124.76 211.143C125.236 211.143 125.659 211.225 126.027 211.389C126.395 211.548 126.701 211.775 126.945 212.069C127.194 212.358 127.381 212.707 127.506 213.115C127.636 213.517 127.701 213.962 127.701 214.449V220H125.602V214.449C125.602 213.917 125.48 213.506 125.236 213.217C124.993 212.922 124.622 212.775 124.123 212.775C123.76 212.775 123.42 212.857 123.103 213.021C122.786 213.186 122.485 213.41 122.202 213.693V220H120.102V211.279H121.386C121.658 211.279 121.836 211.406 121.921 211.661L122.066 212.35ZM134.452 220V212.86L133.696 212.741C133.532 212.707 133.398 212.65 133.296 212.571C133.2 212.486 133.152 212.367 133.152 212.214V211.355H134.452V211.075C134.452 210.542 134.54 210.049 134.716 209.596C134.892 209.137 135.158 208.74 135.515 208.406C135.872 208.072 136.322 207.811 136.866 207.624C137.416 207.431 138.062 207.335 138.804 207.335C139.042 207.335 139.283 207.349 139.527 207.377C139.776 207.4 139.992 207.44 140.173 207.496L140.105 208.584C140.094 208.715 140.023 208.794 139.892 208.822C139.762 208.845 139.601 208.856 139.408 208.856C138.858 208.856 138.396 208.905 138.022 209.001C137.654 209.097 137.354 209.242 137.121 209.434C136.895 209.621 136.73 209.859 136.628 210.148C136.532 210.432 136.484 210.763 136.484 211.143V211.355H141.89V220H139.79V212.851H136.552V220H134.452ZM146.005 212.35C146.181 212.174 146.365 212.013 146.558 211.865C146.756 211.712 146.963 211.585 147.178 211.483C147.399 211.375 147.635 211.293 147.884 211.236C148.133 211.174 148.405 211.143 148.7 211.143C149.176 211.143 149.598 211.225 149.966 211.389C150.335 211.548 150.641 211.775 150.884 212.069C151.134 212.358 151.321 212.707 151.445 213.115C151.576 213.517 151.641 213.962 151.641 214.449V220H149.541V214.449C149.541 213.917 149.42 213.506 149.176 213.217C148.932 212.922 148.561 212.775 148.062 212.775C147.7 212.775 147.36 212.857 147.042 213.021C146.725 213.186 146.425 213.41 146.141 213.693V220H144.042V211.279H145.325C145.597 211.279 145.776 211.406 145.861 211.661L146.005 212.35ZM159.112 213.506C158.874 213.217 158.613 213.013 158.33 212.894C158.052 212.775 157.752 212.715 157.429 212.715C157.111 212.715 156.825 212.775 156.57 212.894C156.315 213.013 156.097 213.194 155.916 213.438C155.734 213.676 155.595 213.982 155.499 214.356C155.403 214.724 155.355 215.161 155.355 215.665C155.355 216.175 155.394 216.608 155.474 216.965C155.559 217.317 155.678 217.606 155.831 217.832C155.984 218.053 156.171 218.215 156.392 218.317C156.613 218.413 156.859 218.461 157.131 218.461C157.567 218.461 157.939 218.371 158.245 218.189C158.551 218.008 158.84 217.75 159.112 217.416V213.506ZM161.211 207.369V220H159.928C159.65 220 159.474 219.872 159.401 219.617L159.222 218.776C158.871 219.178 158.466 219.504 158.007 219.753C157.553 220.003 157.023 220.128 156.417 220.128C155.941 220.128 155.505 220.028 155.108 219.83C154.711 219.632 154.369 219.345 154.08 218.971C153.796 218.592 153.575 218.124 153.417 217.569C153.264 217.014 153.187 216.379 153.187 215.665C153.187 215.019 153.275 214.418 153.451 213.863C153.626 213.308 153.878 212.826 154.207 212.418C154.536 212.01 154.93 211.693 155.389 211.466C155.848 211.234 156.363 211.117 156.936 211.117C157.423 211.117 157.839 211.194 158.185 211.347C158.531 211.5 158.84 211.707 159.112 211.967V207.369H161.211ZM168.902 214.636C168.902 214.364 168.862 214.109 168.783 213.871C168.709 213.628 168.596 213.415 168.443 213.234C168.29 213.053 168.094 212.911 167.856 212.809C167.624 212.701 167.352 212.647 167.04 212.647C166.434 212.647 165.955 212.82 165.604 213.166C165.258 213.512 165.037 214.002 164.941 214.636H168.902ZM164.898 215.903C164.932 216.351 165.011 216.739 165.136 217.067C165.261 217.39 165.425 217.66 165.629 217.875C165.833 218.085 166.074 218.243 166.352 218.351C166.635 218.453 166.947 218.504 167.287 218.504C167.627 218.504 167.918 218.464 168.162 218.385C168.411 218.306 168.627 218.218 168.808 218.121C168.995 218.025 169.157 217.937 169.293 217.858C169.434 217.779 169.57 217.739 169.701 217.739C169.876 217.739 170.007 217.804 170.092 217.934L170.695 218.699C170.463 218.971 170.202 219.201 169.913 219.388C169.624 219.569 169.321 219.717 169.004 219.83C168.692 219.938 168.372 220.014 168.043 220.06C167.72 220.105 167.406 220.128 167.1 220.128C166.493 220.128 165.929 220.028 165.408 219.83C164.887 219.626 164.433 219.328 164.048 218.938C163.663 218.541 163.36 218.053 163.139 217.475C162.918 216.892 162.807 216.217 162.807 215.452C162.807 214.857 162.903 214.299 163.096 213.778C163.289 213.251 163.564 212.795 163.921 212.409C164.283 212.018 164.722 211.71 165.238 211.483C165.759 211.256 166.346 211.143 166.998 211.143C167.547 211.143 168.054 211.231 168.519 211.406C168.984 211.582 169.383 211.84 169.718 212.18C170.052 212.514 170.313 212.928 170.5 213.421C170.692 213.908 170.789 214.466 170.789 215.095C170.789 215.413 170.755 215.628 170.687 215.741C170.619 215.849 170.488 215.903 170.296 215.903H164.898ZM174.328 212.35C174.503 212.174 174.687 212.013 174.88 211.865C175.078 211.712 175.285 211.585 175.501 211.483C175.722 211.375 175.957 211.293 176.206 211.236C176.455 211.174 176.727 211.143 177.022 211.143C177.498 211.143 177.92 211.225 178.289 211.389C178.657 211.548 178.963 211.775 179.207 212.069C179.456 212.358 179.643 212.707 179.768 213.115C179.898 213.517 179.963 213.962 179.963 214.449V220H177.864V214.449C177.864 213.917 177.742 213.506 177.498 213.217C177.254 212.922 176.883 212.775 176.385 212.775C176.022 212.775 175.682 212.857 175.365 213.021C175.047 213.186 174.747 213.41 174.464 213.693V220H172.364V211.279H173.648C173.92 211.279 174.098 211.406 174.183 211.661L174.328 212.35ZM62.9135 229.944C62.8455 230.063 62.7718 230.151 62.6925 230.208C62.6188 230.259 62.5253 230.284 62.412 230.284C62.293 230.284 62.1627 230.242 62.021 230.157C61.885 230.066 61.7207 229.967 61.528 229.859C61.3353 229.752 61.1087 229.655 60.848 229.57C60.593 229.48 60.2898 229.434 59.9385 229.434C59.6212 229.434 59.3435 229.474 59.1055 229.553C58.8675 229.627 58.6663 229.732 58.502 229.868C58.3433 230.004 58.2243 230.168 58.145 230.361C58.0657 230.548 58.026 230.755 58.026 230.981C58.026 231.27 58.1053 231.511 58.264 231.704C58.4283 231.897 58.6437 232.061 58.91 232.197C59.1763 232.333 59.4795 232.455 59.8195 232.562C60.1595 232.67 60.508 232.786 60.865 232.911C61.222 233.03 61.5705 233.172 61.9105 233.336C62.2505 233.495 62.5537 233.699 62.82 233.948C63.0863 234.192 63.2988 234.492 63.4575 234.849C63.6218 235.206 63.704 235.639 63.704 236.149C63.704 236.705 63.6077 237.226 63.415 237.713C63.228 238.195 62.9503 238.617 62.582 238.98C62.2193 239.337 61.7745 239.62 61.2475 239.83C60.7205 240.034 60.117 240.136 59.437 240.136C59.046 240.136 58.6607 240.096 58.281 240.017C57.9013 239.943 57.5358 239.836 57.1845 239.694C56.8388 239.552 56.513 239.382 56.207 239.184C55.901 238.986 55.629 238.765 55.391 238.521L56.0625 237.424C56.1192 237.345 56.1928 237.28 56.2835 237.229C56.3742 237.172 56.4705 237.144 56.5725 237.144C56.7142 237.144 56.8672 237.203 57.0315 237.322C57.1958 237.436 57.3913 237.563 57.618 237.705C57.8447 237.847 58.1082 237.977 58.4085 238.096C58.7145 238.209 59.08 238.266 59.505 238.266C60.1567 238.266 60.661 238.113 61.018 237.807C61.375 237.495 61.5535 237.05 61.5535 236.472C61.5535 236.149 61.4713 235.886 61.307 235.682C61.1483 235.478 60.9358 235.308 60.6695 235.172C60.4032 235.03 60.1 234.911 59.76 234.815C59.42 234.719 59.0743 234.614 58.723 234.5C58.3717 234.387 58.026 234.251 57.686 234.092C57.346 233.934 57.0428 233.727 56.7765 233.472C56.5102 233.217 56.2948 232.9 56.1305 232.52C55.9718 232.135 55.8925 231.661 55.8925 231.1C55.8925 230.653 55.9803 230.216 56.156 229.791C56.3373 229.366 56.598 228.99 56.938 228.661C57.278 228.332 57.6973 228.069 58.196 227.87C58.6947 227.672 59.267 227.573 59.913 227.573C60.6383 227.573 61.307 227.686 61.919 227.913C62.531 228.14 63.0523 228.457 63.483 228.865L62.9135 229.944ZM67.5099 231.279V240H65.4019V231.279H67.5099ZM67.7989 228.737C67.7989 228.919 67.762 229.089 67.6884 229.247C67.6147 229.406 67.5155 229.545 67.3909 229.664C67.2719 229.783 67.1302 229.879 66.9659 229.953C66.8015 230.021 66.6259 230.055 66.4389 230.055C66.2575 230.055 66.0847 230.021 65.9204 229.953C65.7617 229.879 65.6229 229.783 65.5039 229.664C65.3849 229.545 65.2885 229.406 65.2149 229.247C65.1469 229.089 65.1129 228.919 65.1129 228.737C65.1129 228.55 65.1469 228.375 65.2149 228.21C65.2885 228.046 65.3849 227.904 65.5039 227.785C65.6229 227.666 65.7617 227.573 65.9204 227.505C66.0847 227.431 66.2575 227.394 66.4389 227.394C66.6259 227.394 66.8015 227.431 66.9659 227.505C67.1302 227.573 67.2719 227.666 67.3909 227.785C67.5155 227.904 67.6147 228.046 67.6884 228.21C67.762 228.375 67.7989 228.55 67.7989 228.737ZM75.2688 234.636C75.2688 234.364 75.2291 234.109 75.1498 233.871C75.0761 233.628 74.9628 233.415 74.8098 233.234C74.6568 233.053 74.4613 232.911 74.2233 232.809C73.9909 232.701 73.7189 232.647 73.4073 232.647C72.8009 232.647 72.3221 232.82 71.9708 233.166C71.6251 233.512 71.4041 234.002 71.3078 234.636H75.2688ZM71.2653 235.903C71.2993 236.351 71.3786 236.739 71.5033 237.067C71.6279 237.39 71.7923 237.66 71.9963 237.875C72.2003 238.085 72.4411 238.243 72.7188 238.351C73.0021 238.453 73.3138 238.504 73.6538 238.504C73.9938 238.504 74.2856 238.464 74.5293 238.385C74.7786 238.306 74.9939 238.218 75.1753 238.121C75.3623 238.025 75.5238 237.937 75.6598 237.858C75.8014 237.779 75.9374 237.739 76.0678 237.739C76.2434 237.739 76.3738 237.804 76.4588 237.934L77.0623 238.699C76.8299 238.971 76.5693 239.201 76.2803 239.388C75.9913 239.569 75.6881 239.717 75.3708 239.83C75.0591 239.938 74.7389 240.014 74.4103 240.06C74.0873 240.105 73.7728 240.128 73.4668 240.128C72.8604 240.128 72.2966 240.028 71.7753 239.83C71.2539 239.626 70.8006 239.328 70.4153 238.938C70.0299 238.541 69.7268 238.053 69.5058 237.475C69.2848 236.892 69.1743 236.217 69.1743 235.452C69.1743 234.857 69.2706 234.299 69.4633 233.778C69.6559 233.251 69.9308 232.795 70.2878 232.409C70.6504 232.018 71.0896 231.71 71.6053 231.483C72.1266 231.256 72.7131 231.143 73.3648 231.143C73.9144 231.143 74.4216 231.231 74.8863 231.406C75.3509 231.582 75.7504 231.84 76.0848 232.18C76.4191 232.514 76.6798 232.928 76.8668 233.421C77.0594 233.908 77.1558 234.466 77.1558 235.095C77.1558 235.413 77.1218 235.628 77.0538 235.741C76.9858 235.849 76.8554 235.903 76.6628 235.903H71.2653ZM85.0411 231.279V240H82.9331V231.279H85.0411ZM85.3301 228.737C85.3301 228.919 85.2933 229.089 85.2196 229.247C85.146 229.406 85.0468 229.545 84.9221 229.664C84.8031 229.783 84.6615 229.879 84.4971 229.953C84.3328 230.021 84.1571 230.055 83.9701 230.055C83.7888 230.055 83.616 230.021 83.4516 229.953C83.293 229.879 83.1541 229.783 83.0351 229.664C82.9161 229.545 82.8198 229.406 82.7461 229.247C82.6781 229.089 82.6441 228.919 82.6441 228.737C82.6441 228.55 82.6781 228.375 82.7461 228.21C82.8198 228.046 82.9161 227.904 83.0351 227.785C83.1541 227.666 83.293 227.573 83.4516 227.505C83.616 227.431 83.7888 227.394 83.9701 227.394C84.1571 227.394 84.3328 227.431 84.4971 227.505C84.6615 227.573 84.8031 227.666 84.9221 227.785C85.0468 227.904 85.146 228.046 85.2196 228.21C85.2933 228.375 85.3301 228.55 85.3301 228.737ZM89.145 232.35C89.3207 232.174 89.5049 232.013 89.6975 231.865C89.8959 231.712 90.1027 231.585 90.318 231.483C90.539 231.375 90.7742 231.293 91.0235 231.236C91.2729 231.174 91.5449 231.143 91.8395 231.143C92.3155 231.143 92.7377 231.225 93.106 231.389C93.4744 231.548 93.7804 231.775 94.024 232.069C94.2734 232.358 94.4604 232.707 94.585 233.115C94.7154 233.517 94.7805 233.962 94.7805 234.449V240H92.681V234.449C92.681 233.917 92.5592 233.506 92.3155 233.217C92.0719 232.922 91.7007 232.775 91.202 232.775C90.8394 232.775 90.4994 232.857 90.182 233.021C89.8647 233.186 89.5644 233.41 89.281 233.693V240H87.1815V231.279H88.465C88.737 231.279 88.9155 231.406 89.0005 231.661L89.145 232.35ZM100.911 240V231.279H102.195C102.467 231.279 102.645 231.406 102.73 231.661L102.866 232.307C103.019 232.137 103.178 231.982 103.342 231.84C103.512 231.698 103.691 231.576 103.878 231.474C104.07 231.372 104.274 231.293 104.49 231.236C104.711 231.174 104.951 231.143 105.212 231.143C105.762 231.143 106.212 231.293 106.564 231.593C106.921 231.888 107.187 232.282 107.363 232.775C107.499 232.486 107.669 232.239 107.873 232.035C108.077 231.826 108.3 231.656 108.544 231.525C108.788 231.395 109.046 231.299 109.318 231.236C109.595 231.174 109.873 231.143 110.151 231.143C110.632 231.143 111.06 231.217 111.434 231.364C111.808 231.511 112.123 231.727 112.378 232.01C112.633 232.293 112.825 232.639 112.956 233.047C113.092 233.455 113.16 233.922 113.16 234.449V240H111.06V234.449C111.06 233.894 110.938 233.478 110.695 233.2C110.451 232.917 110.094 232.775 109.624 232.775C109.408 232.775 109.207 232.812 109.02 232.885C108.839 232.959 108.677 233.067 108.536 233.208C108.4 233.344 108.292 233.517 108.213 233.727C108.133 233.937 108.094 234.177 108.094 234.449V240H105.986V234.449C105.986 233.866 105.867 233.441 105.629 233.174C105.396 232.908 105.053 232.775 104.6 232.775C104.294 232.775 104.008 232.851 103.742 233.004C103.481 233.152 103.237 233.356 103.011 233.616V240H100.911ZM120.774 234.636C120.774 234.364 120.734 234.109 120.655 233.871C120.581 233.628 120.468 233.415 120.315 233.234C120.162 233.053 119.966 232.911 119.728 232.809C119.496 232.701 119.224 232.647 118.912 232.647C118.306 232.647 117.827 232.82 117.476 233.166C117.13 233.512 116.909 234.002 116.813 234.636H120.774ZM116.77 235.903C116.804 236.351 116.883 236.739 117.008 237.067C117.133 237.39 117.297 237.66 117.501 237.875C117.705 238.085 117.946 238.243 118.224 238.351C118.507 238.453 118.819 238.504 119.159 238.504C119.499 238.504 119.79 238.464 120.034 238.385C120.283 238.306 120.499 238.218 120.68 238.121C120.867 238.025 121.029 237.937 121.165 237.858C121.306 237.779 121.442 237.739 121.573 237.739C121.748 237.739 121.879 237.804 121.964 237.934L122.567 238.699C122.335 238.971 122.074 239.201 121.785 239.388C121.496 239.569 121.193 239.717 120.876 239.83C120.564 239.938 120.244 240.014 119.915 240.06C119.592 240.105 119.278 240.128 118.972 240.128C118.365 240.128 117.801 240.028 117.28 239.83C116.759 239.626 116.305 239.328 115.92 238.938C115.535 238.541 115.232 238.053 115.011 237.475C114.79 236.892 114.679 236.217 114.679 235.452C114.679 234.857 114.775 234.299 114.968 233.778C115.161 233.251 115.436 232.795 115.793 232.409C116.155 232.018 116.594 231.71 117.11 231.483C117.631 231.256 118.218 231.143 118.87 231.143C119.419 231.143 119.926 231.231 120.391 231.406C120.856 231.582 121.255 231.84 121.59 232.18C121.924 232.514 122.185 232.928 122.372 233.421C122.564 233.908 122.661 234.466 122.661 235.095C122.661 235.413 122.627 235.628 122.559 235.741C122.491 235.849 122.36 235.903 122.168 235.903H116.77ZM126.412 231.279V240H124.304V231.279H126.412ZM126.701 228.737C126.701 228.919 126.664 229.089 126.591 229.247C126.517 229.406 126.418 229.545 126.293 229.664C126.174 229.783 126.033 229.879 125.868 229.953C125.704 230.021 125.528 230.055 125.341 230.055C125.16 230.055 124.987 230.021 124.823 229.953C124.664 229.879 124.525 229.783 124.406 229.664C124.287 229.545 124.191 229.406 124.117 229.247C124.049 229.089 124.015 228.919 124.015 228.737C124.015 228.55 124.049 228.375 124.117 228.21C124.191 228.046 124.287 227.904 124.406 227.785C124.525 227.666 124.664 227.573 124.823 227.505C124.987 227.431 125.16 227.394 125.341 227.394C125.528 227.394 125.704 227.431 125.868 227.505C126.033 227.573 126.174 227.666 126.293 227.785C126.418 227.904 126.517 228.046 126.591 228.21C126.664 228.375 126.701 228.55 126.701 228.737ZM130.516 232.35C130.692 232.174 130.876 232.013 131.069 231.865C131.267 231.712 131.474 231.585 131.689 231.483C131.91 231.375 132.145 231.293 132.395 231.236C132.644 231.174 132.916 231.143 133.211 231.143C133.687 231.143 134.109 231.225 134.477 231.389C134.845 231.548 135.151 231.775 135.395 232.069C135.644 232.358 135.831 232.707 135.956 233.115C136.086 233.517 136.152 233.962 136.152 234.449V240H134.052V234.449C134.052 233.917 133.93 233.506 133.687 233.217C133.443 232.922 133.072 232.775 132.573 232.775C132.21 232.775 131.87 232.857 131.553 233.021C131.236 233.186 130.935 233.41 130.652 233.693V240H128.553V231.279H129.836C130.108 231.279 130.287 231.406 130.372 231.661L130.516 232.35ZM143.767 234.636C143.767 234.364 143.727 234.109 143.648 233.871C143.574 233.628 143.461 233.415 143.308 233.234C143.155 233.053 142.959 232.911 142.721 232.809C142.489 232.701 142.217 232.647 141.905 232.647C141.299 232.647 140.82 232.82 140.469 233.166C140.123 233.512 139.902 234.002 139.806 234.636H143.767ZM139.763 235.903C139.797 236.351 139.877 236.739 140.001 237.067C140.126 237.39 140.29 237.66 140.494 237.875C140.698 238.085 140.939 238.243 141.217 238.351C141.5 238.453 141.812 238.504 142.152 238.504C142.492 238.504 142.784 238.464 143.027 238.385C143.277 238.306 143.492 238.218 143.673 238.121C143.86 238.025 144.022 237.937 144.158 237.858C144.299 237.779 144.435 237.739 144.566 237.739C144.741 237.739 144.872 237.804 144.957 237.934L145.56 238.699C145.328 238.971 145.067 239.201 144.778 239.388C144.489 239.569 144.186 239.717 143.869 239.83C143.557 239.938 143.237 240.014 142.908 240.06C142.585 240.105 142.271 240.128 141.965 240.128C141.358 240.128 140.795 240.028 140.273 239.83C139.752 239.626 139.299 239.328 138.913 238.938C138.528 238.541 138.225 238.053 138.004 237.475C137.783 236.892 137.672 236.217 137.672 235.452C137.672 234.857 137.769 234.299 137.961 233.778C138.154 233.251 138.429 232.795 138.786 232.409C139.148 232.018 139.588 231.71 140.103 231.483C140.625 231.256 141.211 231.143 141.863 231.143C142.412 231.143 142.92 231.231 143.384 231.406C143.849 231.582 144.248 231.84 144.583 232.18C144.917 232.514 145.178 232.928 145.365 233.421C145.557 233.908 145.654 234.466 145.654 235.095C145.654 235.413 145.62 235.628 145.552 235.741C145.484 235.849 145.353 235.903 145.161 235.903H139.763ZM147.229 240V231.279H148.513C148.785 231.279 148.963 231.406 149.048 231.661L149.184 232.307C149.337 232.137 149.496 231.982 149.66 231.84C149.83 231.698 150.009 231.576 150.196 231.474C150.389 231.372 150.593 231.293 150.808 231.236C151.029 231.174 151.27 231.143 151.53 231.143C152.08 231.143 152.531 231.293 152.882 231.593C153.239 231.888 153.505 232.282 153.681 232.775C153.817 232.486 153.987 232.239 154.191 232.035C154.395 231.826 154.619 231.656 154.862 231.525C155.106 231.395 155.364 231.299 155.636 231.236C155.914 231.174 156.191 231.143 156.469 231.143C156.951 231.143 157.378 231.217 157.752 231.364C158.126 231.511 158.441 231.727 158.696 232.01C158.951 232.293 159.144 232.639 159.274 233.047C159.41 233.455 159.478 233.922 159.478 234.449V240H157.378V234.449C157.378 233.894 157.257 233.478 157.013 233.2C156.769 232.917 156.412 232.775 155.942 232.775C155.727 232.775 155.525 232.812 155.338 232.885C155.157 232.959 154.996 233.067 154.854 233.208C154.718 233.344 154.61 233.517 154.531 233.727C154.452 233.937 154.412 234.177 154.412 234.449V240H152.304V234.449C152.304 233.866 152.185 233.441 151.947 233.174C151.715 232.908 151.372 232.775 150.918 232.775C150.612 232.775 150.326 232.851 150.06 233.004C149.799 233.152 149.556 233.356 149.329 233.616V240H147.229ZM60.3635 253.888C60.7828 253.888 61.1483 253.837 61.46 253.735C61.7717 253.628 62.0295 253.478 62.2335 253.285C62.4432 253.087 62.599 252.849 62.701 252.571C62.803 252.288 62.854 251.973 62.854 251.627C62.854 251.299 62.803 251.001 62.701 250.735C62.599 250.469 62.446 250.242 62.242 250.055C62.038 249.868 61.7802 249.726 61.4685 249.63C61.1568 249.528 60.7885 249.477 60.3635 249.477H58.655V253.888H60.3635ZM60.3635 247.709C61.1852 247.709 61.8963 247.805 62.497 247.998C63.0977 248.191 63.5935 248.46 63.9845 248.805C64.3755 249.151 64.6645 249.565 64.8515 250.046C65.0442 250.528 65.1405 251.055 65.1405 251.627C65.1405 252.222 65.0413 252.769 64.843 253.268C64.6447 253.761 64.3472 254.186 63.9505 254.543C63.5538 254.9 63.0552 255.178 62.4545 255.376C61.8595 255.574 61.1625 255.673 60.3635 255.673H58.655V260H56.3685V247.709H60.3635ZM77.8079 253.854C77.8079 254.755 77.6577 255.583 77.3574 256.336C77.0571 257.09 76.6349 257.739 76.0909 258.283C75.5469 258.827 74.8924 259.249 74.1274 259.549C73.3624 259.85 72.5124 260 71.5774 260H66.8939V247.709H71.5774C72.5124 247.709 73.3624 247.862 74.1274 248.168C74.8924 248.468 75.5469 248.89 76.0909 249.434C76.6349 249.973 77.0571 250.619 77.3574 251.372C77.6577 252.126 77.8079 252.953 77.8079 253.854ZM75.4619 253.854C75.4619 253.18 75.3712 252.577 75.1899 252.044C75.0142 251.506 74.7564 251.052 74.4164 250.684C74.0821 250.31 73.6741 250.024 73.1924 249.825C72.7164 249.627 72.1781 249.528 71.5774 249.528H69.1889V258.181H71.5774C72.1781 258.181 72.7164 258.082 73.1924 257.883C73.6741 257.685 74.0821 257.402 74.4164 257.033C74.7564 256.659 75.0142 256.206 75.1899 255.673C75.3712 255.135 75.4619 254.529 75.4619 253.854ZM82.1215 249.528V253.166H86.7285V254.993H82.1215V260H79.8265V247.709H87.5785V249.528H82.1215ZM88.8069 253.99H93.2099V255.741H88.8069V253.99ZM102.748 258.113V260H95.5482V247.709H97.8347V258.113H102.748ZM109.219 254.636C109.219 254.364 109.179 254.109 109.1 253.871C109.026 253.628 108.913 253.415 108.76 253.234C108.607 253.053 108.411 252.911 108.173 252.809C107.941 252.701 107.669 252.647 107.357 252.647C106.751 252.647 106.272 252.82 105.921 253.166C105.575 253.512 105.354 254.002 105.258 254.636H109.219ZM105.215 255.903C105.249 256.351 105.329 256.739 105.453 257.067C105.578 257.39 105.742 257.66 105.946 257.875C106.15 258.085 106.391 258.243 106.669 258.351C106.952 258.453 107.264 258.504 107.604 258.504C107.944 258.504 108.236 258.464 108.479 258.385C108.729 258.306 108.944 258.218 109.125 258.121C109.312 258.025 109.474 257.937 109.61 257.858C109.752 257.779 109.888 257.739 110.018 257.739C110.194 257.739 110.324 257.804 110.409 257.934L111.012 258.699C110.78 258.971 110.519 259.201 110.23 259.388C109.941 259.569 109.638 259.717 109.321 259.83C109.009 259.938 108.689 260.014 108.36 260.06C108.037 260.105 107.723 260.128 107.417 260.128C106.811 260.128 106.247 260.028 105.725 259.83C105.204 259.626 104.751 259.328 104.365 258.938C103.98 258.541 103.677 258.053 103.456 257.475C103.235 256.892 103.124 256.217 103.124 255.452C103.124 254.857 103.221 254.299 103.413 253.778C103.606 253.251 103.881 252.795 104.238 252.409C104.601 252.018 105.04 251.71 105.555 251.483C106.077 251.256 106.663 251.143 107.315 251.143C107.865 251.143 108.372 251.231 108.836 251.406C109.301 251.582 109.701 251.84 110.035 252.18C110.369 252.514 110.63 252.928 110.817 253.421C111.01 253.908 111.106 254.466 111.106 255.095C111.106 255.413 111.072 255.628 111.004 255.741C110.936 255.849 110.806 255.903 110.613 255.903H105.215ZM114.781 257.739C115.019 258.028 115.277 258.232 115.555 258.351C115.838 258.47 116.135 258.529 116.447 258.529C116.77 258.529 117.059 258.473 117.314 258.359C117.575 258.24 117.796 258.059 117.977 257.816C118.158 257.566 118.297 257.252 118.394 256.872C118.49 256.487 118.538 256.028 118.538 255.495C118.538 254.537 118.379 253.846 118.062 253.421C117.745 252.99 117.289 252.775 116.694 252.775C116.291 252.775 115.94 252.868 115.64 253.055C115.339 253.237 115.053 253.495 114.781 253.829V257.739ZM114.781 252.35C115.132 251.982 115.521 251.69 115.946 251.474C116.376 251.253 116.866 251.143 117.416 251.143C117.92 251.143 118.374 251.242 118.776 251.44C119.184 251.639 119.53 251.925 119.813 252.299C120.102 252.667 120.323 253.115 120.476 253.642C120.629 254.169 120.706 254.761 120.706 255.418C120.706 256.127 120.618 256.77 120.442 257.348C120.266 257.926 120.014 258.422 119.686 258.835C119.363 259.243 118.972 259.561 118.513 259.787C118.054 260.014 117.544 260.128 116.983 260.128C116.711 260.128 116.464 260.099 116.243 260.043C116.022 259.991 115.818 259.918 115.631 259.821C115.444 259.725 115.271 259.609 115.113 259.473C114.96 259.331 114.812 259.175 114.671 259.005L114.577 259.592C114.543 259.739 114.484 259.844 114.399 259.906C114.319 259.969 114.209 260 114.067 260H112.682V247.369H114.781V252.35ZM127.946 254.636C127.946 254.364 127.906 254.109 127.827 253.871C127.753 253.628 127.64 253.415 127.487 253.234C127.334 253.053 127.138 252.911 126.9 252.809C126.668 252.701 126.396 252.647 126.084 252.647C125.478 252.647 124.999 252.82 124.648 253.166C124.302 253.512 124.081 254.002 123.985 254.636H127.946ZM123.942 255.903C123.976 256.351 124.055 256.739 124.18 257.067C124.305 257.39 124.469 257.66 124.673 257.875C124.877 258.085 125.118 258.243 125.396 258.351C125.679 258.453 125.991 258.504 126.331 258.504C126.671 258.504 126.962 258.464 127.206 258.385C127.455 258.306 127.671 258.218 127.852 258.121C128.039 258.025 128.201 257.937 128.337 257.858C128.478 257.779 128.614 257.739 128.745 257.739C128.92 257.739 129.051 257.804 129.136 257.934L129.739 258.699C129.507 258.971 129.246 259.201 128.957 259.388C128.668 259.569 128.365 259.717 128.048 259.83C127.736 259.938 127.416 260.014 127.087 260.06C126.764 260.105 126.45 260.128 126.144 260.128C125.537 260.128 124.973 260.028 124.452 259.83C123.931 259.626 123.477 259.328 123.092 258.938C122.707 258.541 122.404 258.053 122.183 257.475C121.962 256.892 121.851 256.217 121.851 255.452C121.851 254.857 121.947 254.299 122.14 253.778C122.333 253.251 122.608 252.795 122.965 252.409C123.327 252.018 123.766 251.71 124.282 251.483C124.803 251.256 125.39 251.143 126.042 251.143C126.591 251.143 127.098 251.231 127.563 251.406C128.028 251.582 128.427 251.84 128.762 252.18C129.096 252.514 129.357 252.928 129.544 253.421C129.736 253.908 129.833 254.466 129.833 255.095C129.833 255.413 129.799 255.628 129.731 255.741C129.663 255.849 129.532 255.903 129.34 255.903H123.942ZM133.372 252.35C133.547 252.174 133.731 252.013 133.924 251.865C134.122 251.712 134.329 251.585 134.545 251.483C134.766 251.375 135.001 251.293 135.25 251.236C135.499 251.174 135.771 251.143 136.066 251.143C136.542 251.143 136.964 251.225 137.333 251.389C137.701 251.548 138.007 251.775 138.251 252.069C138.5 252.358 138.687 252.707 138.812 253.115C138.942 253.517 139.007 253.962 139.007 254.449V260H136.908V254.449C136.908 253.917 136.786 253.506 136.542 253.217C136.298 252.922 135.927 252.775 135.429 252.775C135.066 252.775 134.726 252.857 134.409 253.021C134.091 253.186 133.791 253.41 133.508 253.693V260H131.408V251.279H132.692C132.964 251.279 133.142 251.406 133.227 251.661L133.372 252.35ZM146.325 252.979C146.268 253.07 146.209 253.135 146.146 253.174C146.084 253.208 146.005 253.225 145.908 253.225C145.806 253.225 145.696 253.197 145.577 253.14C145.463 253.084 145.33 253.021 145.177 252.953C145.024 252.88 144.849 252.815 144.65 252.758C144.458 252.701 144.228 252.673 143.962 252.673C143.548 252.673 143.222 252.761 142.984 252.936C142.752 253.112 142.636 253.342 142.636 253.625C142.636 253.812 142.695 253.971 142.814 254.101C142.939 254.226 143.1 254.336 143.299 254.432C143.503 254.529 143.732 254.617 143.987 254.696C144.242 254.77 144.5 254.852 144.761 254.942C145.027 255.033 145.288 255.138 145.543 255.257C145.798 255.37 146.024 255.518 146.223 255.699C146.427 255.875 146.588 256.087 146.707 256.336C146.832 256.586 146.894 256.886 146.894 257.237C146.894 257.657 146.818 258.045 146.665 258.402C146.517 258.753 146.296 259.059 146.002 259.32C145.707 259.575 145.342 259.776 144.905 259.923C144.475 260.065 143.976 260.136 143.409 260.136C143.109 260.136 142.814 260.108 142.525 260.051C142.242 260 141.967 259.926 141.701 259.83C141.44 259.734 141.196 259.62 140.97 259.49C140.749 259.36 140.553 259.218 140.383 259.065L140.868 258.266C140.93 258.17 141.004 258.096 141.089 258.045C141.174 257.994 141.281 257.968 141.412 257.968C141.542 257.968 141.664 258.005 141.777 258.079C141.896 258.153 142.032 258.232 142.185 258.317C142.338 258.402 142.517 258.481 142.721 258.555C142.93 258.629 143.194 258.665 143.511 258.665C143.761 258.665 143.973 258.637 144.149 258.58C144.33 258.518 144.477 258.439 144.591 258.342C144.71 258.246 144.795 258.136 144.846 258.011C144.902 257.881 144.931 257.747 144.931 257.611C144.931 257.407 144.868 257.24 144.744 257.11C144.625 256.98 144.463 256.866 144.259 256.77C144.061 256.674 143.831 256.589 143.571 256.515C143.316 256.436 143.052 256.351 142.78 256.26C142.514 256.169 142.25 256.064 141.99 255.945C141.735 255.821 141.505 255.665 141.301 255.478C141.103 255.291 140.941 255.061 140.817 254.789C140.698 254.517 140.638 254.189 140.638 253.803C140.638 253.446 140.709 253.106 140.851 252.783C140.992 252.46 141.199 252.18 141.471 251.942C141.749 251.698 142.092 251.506 142.5 251.364C142.913 251.217 143.389 251.143 143.928 251.143C144.528 251.143 145.075 251.242 145.568 251.44C146.061 251.639 146.472 251.899 146.801 252.222L146.325 252.979ZM150.6 247.369V260H148.5V247.369H150.6ZM157.298 256.277C156.692 256.305 156.182 256.359 155.768 256.438C155.355 256.512 155.023 256.608 154.774 256.727C154.524 256.846 154.346 256.985 154.238 257.144C154.131 257.303 154.077 257.475 154.077 257.662C154.077 258.031 154.184 258.294 154.4 258.453C154.621 258.612 154.907 258.691 155.258 258.691C155.689 258.691 156.06 258.614 156.372 258.461C156.689 258.303 156.998 258.065 157.298 257.747V256.277ZM152.487 252.494C153.49 251.576 154.697 251.117 156.108 251.117C156.618 251.117 157.074 251.202 157.477 251.372C157.879 251.537 158.219 251.769 158.497 252.069C158.774 252.364 158.984 252.718 159.126 253.132C159.273 253.546 159.347 253.999 159.347 254.492V260H158.395C158.196 260 158.043 259.972 157.936 259.915C157.828 259.853 157.743 259.731 157.681 259.549L157.494 258.92C157.273 259.119 157.057 259.294 156.848 259.447C156.638 259.595 156.42 259.719 156.193 259.821C155.967 259.923 155.723 260 155.462 260.051C155.207 260.108 154.924 260.136 154.612 260.136C154.244 260.136 153.904 260.088 153.592 259.991C153.281 259.889 153.011 259.739 152.785 259.541C152.558 259.343 152.382 259.096 152.258 258.801C152.133 258.507 152.071 258.164 152.071 257.773C152.071 257.552 152.108 257.334 152.181 257.118C152.255 256.897 152.374 256.688 152.538 256.489C152.708 256.291 152.926 256.104 153.193 255.928C153.459 255.753 153.785 255.6 154.17 255.469C154.561 255.339 155.015 255.234 155.53 255.155C156.046 255.07 156.635 255.019 157.298 255.002V254.492C157.298 253.908 157.174 253.478 156.924 253.2C156.675 252.917 156.315 252.775 155.845 252.775C155.505 252.775 155.221 252.815 154.995 252.894C154.774 252.973 154.578 253.064 154.408 253.166C154.238 253.262 154.082 253.35 153.941 253.429C153.805 253.509 153.652 253.548 153.482 253.548C153.334 253.548 153.21 253.512 153.108 253.438C153.006 253.359 152.924 253.268 152.861 253.166L152.487 252.494ZM168.838 251.279V260H167.555C167.277 260 167.101 259.872 167.028 259.617L166.883 258.92C166.526 259.283 166.132 259.578 165.702 259.804C165.271 260.025 164.764 260.136 164.18 260.136C163.704 260.136 163.282 260.057 162.914 259.898C162.551 259.734 162.245 259.504 161.996 259.209C161.746 258.915 161.556 258.566 161.426 258.164C161.301 257.756 161.239 257.308 161.239 256.821V251.279H163.339V256.821C163.339 257.354 163.46 257.767 163.704 258.062C163.953 258.351 164.325 258.495 164.818 258.495C165.18 258.495 165.52 258.416 165.838 258.257C166.155 258.093 166.455 257.869 166.739 257.586V251.279H168.838ZM171.532 260V252.86L170.775 252.741C170.611 252.707 170.478 252.65 170.376 252.571C170.279 252.486 170.231 252.367 170.231 252.214V251.355H171.532V250.709C171.532 250.211 171.605 249.763 171.753 249.366C171.906 248.97 172.121 248.633 172.399 248.355C172.682 248.077 173.025 247.865 173.427 247.717C173.83 247.57 174.283 247.496 174.787 247.496C175.19 247.496 175.564 247.55 175.909 247.658L175.867 248.712C175.861 248.791 175.838 248.856 175.799 248.907C175.759 248.953 175.705 248.99 175.637 249.018C175.575 249.041 175.501 249.058 175.416 249.069C175.331 249.075 175.241 249.077 175.144 249.077C174.895 249.077 174.671 249.106 174.473 249.162C174.28 249.213 174.116 249.307 173.98 249.443C173.844 249.573 173.739 249.749 173.665 249.97C173.597 250.185 173.563 250.454 173.563 250.777V251.355H175.833V252.851H173.631V260H171.532Z" fill="black"/>
<defs>
<linearGradient id="paint0_linear" x1="124502" y1="247853" x2="124502" y2="57533.5" gradientUnits="userSpaceOnUse">
<stop stop-color="#808080" stop-opacity="0.25"/>
<stop offset="0.54" stop-color="#808080" stop-opacity="0.12"/>
<stop offset="1" stop-color="#808080" stop-opacity="0.1"/>
</linearGradient>
<linearGradient id="paint1_linear" x1="39165.4" y1="32320.2" x2="39165.4" y2="23348.8" gradientUnits="userSpaceOnUse">
<stop stop-color="#808080" stop-opacity="0.25"/>
<stop offset="0.54" stop-color="#808080" stop-opacity="0.12"/>
<stop offset="1" stop-color="#808080" stop-opacity="0.1"/>
</linearGradient>
<linearGradient id="paint2_linear" x1="72137.7" y1="80450.6" x2="72137.7" y2="62356.5" gradientUnits="userSpaceOnUse">
<stop stop-color="#808080" stop-opacity="0.25"/>
<stop offset="0.54" stop-color="#808080" stop-opacity="0.12"/>
<stop offset="1" stop-color="#808080" stop-opacity="0.1"/>
</linearGradient>
</defs>
</svg>
