<svg width="251" height="234" viewBox="0 0 251 234" fill="none" xmlns="http://www.w3.org/2000/svg">
<path d="M251 122.17C250.673 120.351 250.337 118.557 249.99 116.787C249.99 116.787 249.989 116.786 249.988 116.786C249.988 116.786 249.987 116.786 249.987 116.785C249.986 116.785 249.986 116.784 249.986 116.783C249.985 116.783 249.985 116.782 249.985 116.781C245.604 94.3786 239.702 76.0084 232.711 61.0242L214.187 54.1578L228.149 52.0074C222.505 41.6867 216.285 33.2324 209.675 26.3712L175.652 30.5615L201.333 18.7003C154.138 -19.5594 92.2652 11.1714 75.4052 20.8297C73.0929 22.1493 71.6293 23.0799 71.161 23.3796C71.1561 23.3796 71.1561 23.3796 71.1512 23.3849C71.0488 23.4532 71 23.4848 71 23.4848L80.5715 28.8423H80.5764L250.561 124L251 122.17Z" fill="#EA5455"/>
<path d="M250.373 122.022C250.592 121.086 250.801 120.148 251 119.209C250.505 118.43 249.96 117.578 249.368 116.669C249.367 116.669 249.367 116.668 249.366 116.668C249.365 116.668 249.365 116.668 249.364 116.667C249.364 116.667 249.364 116.666 249.363 116.665C249.363 116.665 249.363 116.664 249.363 116.663C229.845 86.6313 158.304 -11.4995 75.8958 21.8102H75.8909C74.3657 22.427 72.8372 23.0892 71.3054 23.7966C71.3006 23.7966 71.3006 23.7966 71.2957 23.8018C69.9016 24.4448 68.5059 25.1279 67.1085 25.851C66.3993 26.2117 65.695 26.5881 64.9858 26.9697C64.3688 27.3043 63.7568 27.6441 63.1399 27.9943C63.1399 27.9943 59.6328 28.9405 55.703 32.5057C47.9844 39.521 38.6288 56.662 51.0252 96.6838C51.0252 96.6838 62.0324 129.842 56.5288 145.242C51.0252 160.632 85.1494 178.395 95.0442 145.242C104.949 112.079 108.257 80.1021 108.257 80.1021C108.257 80.1021 119.643 105.921 118.521 131.813C118.059 142.424 118.938 153.047 121.595 163.267C121.867 164.338 122.164 165.41 122.46 166.497C126.04 179.435 131.626 196.08 139.855 212.175C143.732 219.845 148.207 227.146 153.232 234C159.816 231.698 166.238 228.89 172.449 225.599C191.373 215.585 208.083 201.32 221.45 183.766C234.817 166.212 244.53 145.777 249.936 123.841L250.373 122.022Z" fill="#2D4059"/>
<path d="M66.4707 40L62 0L81 29.0906L66.4707 40Z" fill="#2D4059"/>
<path d="M56.4707 42L52 3L71 31.3634L56.4707 42Z" fill="#2D4059"/>
<path d="M47.3943 79L0 13L48 59.1776L47.3943 79Z" fill="#EA5455"/>
</svg>
